# xmcd
#
# Track frame offsets: 
#        150
#        19045
#        36117
#        44117
#        54407
#        65077
#        79460
#        88432
#        101025
#        110080
#        123717
#        132542
#        149337
#        161322
#
# Disc length: 2336 seconds
#
# Revision: 1
# Processed by: cddbd v1.5.1PL2 Copyright (c) Steve Scherf et al.
# Submitted via: ExactAudioCopy v0.90b4
#
DISCID=d8091e0e
DTITLE=Slime - Slime I
DYEAR=1983
DGENRE=Punk
TTITLE0=We Don't Need The Army
TTITLE1=Artificial
TTITLE2=A.C.A.B.
TTITLE3=I Wish I Was
TTITLE4=They Don't Give A Fuck
TTITLE5=Robot Age
TTITLE6=Streetfight
TTITLE7=Karlsquell
TTITLE8=Hey Punk
TTITLE9=D.I.S.C.O.
TTITLE10=D.O.R.F.
TTITLE11=Deutschland
TTITLE12=Bullenschweine
TTITLE13=1,7 Promille Blues
EXTD=
EXTT0=
EXTT1=
EXTT2=
EXTT3=
EXTT4=
EXTT5=
EXTT6=
EXTT7=
EXTT8=
EXTT9=
EXTT10=
EXTT11=
EXTT12=
EXTT13=
PLAYORDER=
